#!OML:ASF F:\VICON\USERDATA\INSTALL\rory3\rory3.ASF
:FULLY-SPECIFIED
:DEGREES
1207
root -2.52939 20.987 1.70107 -4.70749 11.1425 4.09595
lowerback 9.94033 1.65211 -3.91581
upperback 3.65713 1.80776 -1.16384
thorax -1.84723 0.895269 0.789433
lowerneck -7.44955 -1.05774 -7.9652
upperneck 27.8659 -1.50938 5.91969
head 10.1701 -0.819065 3.33114
rclavicle -3.08178e-014 3.8266e-015
rhumerus -29.0401 -1.79055 -77.284
rradius 38.0385
rwrist 13.9037
rhand -28.1466 6.48299
rfingers 7.12502
rthumb -1.52749 -23.4913
lclavicle -3.08178e-014 3.8266e-015
lhumerus -34.2417 7.00915 79.4698
lradius 29.3598
lwrist 3.02021
lhand -28.4398 19.2101
lfingers 7.12502
lthumb -1.8107 49.1822
rfemur -28.8492 8.8787 12.704
rtibia 58.8018
rfoot 8.43152 -11.7703
rtoes -1.33986
lfemur -14.9808 1.02218 -26.6944
ltibia 50.3309
lfoot -19.5552 8.27276
ltoes 22.1069
1208
root -2.54301 20.9403 1.7621 -4.61921 11.0949 4.12416
lowerback 9.77297 1.75655 -3.87712
upperback 3.61183 1.95614 -1.20203
thorax -1.80633 0.969397 0.715022
lowerneck -7.41238 -1.0981 -7.78818
upperneck 27.7564 -1.55664 5.76627
head 10.1246 -0.838053 3.23701
rclavicle -6.60524e-014 2.05991e-014
rhumerus -29.2411 -1.98475 -77.1912
rradius 37.9115
rwrist 13.9466
rhand -28.1742 6.36269
rfingers 7.12502
rthumb -1.55417 -23.6114
lclavicle -6.60524e-014 2.05991e-014
lhumerus -34.2283 6.5889 79.5245
lradius 29.5271
lwrist 3.22507
lhand -28.598 19.2912
lfingers 7.12502
lthumb -1.96347 49.2619
rfemur -27.9253 9.49898 12.674
rtibia 56.2882
rfoot 8.16191 -12.1173
rtoes -1.00004
lfemur -15.2459 1.10505 -26.6218
ltibia 51.1165
lfoot -20.3249 8.10994
ltoes 22.4499
1209
root -2.55854 20.8873 1.81716 -4.48444 11.0982 3.97672
lowerback 9.67073 1.81831 -3.64663
upperback 3.45886 2.0588 -1.21768
thorax -1.90541 1.02422 0.558359
lowerneck -7.30693 -1.13777 -7.71147
upperneck 27.7014 -1.64623 5.8194
head 10.0901 -0.865844 3.23166
rclavicle -2.46245e-014 1.92821e-014
rhumerus -29.4537 -2.21997 -77.1389
rradius 37.7013
rwrist 14.0707
rhand -27.9657 5.96851
rfingers 7.12502
rthumb -1.35282 -24.007
lclavicle -2.46245e-014 1.92821e-014
lhumerus -34.387 6.09103 79.5393
lradius 29.7641
lwrist 3.41441
lhand -28.4745 19.0392
lfingers 7.12502
lthumb -1.84415 49.011
rfemur -27.0914 10.1203 12.8395
rtibia 53.809
rfoot 8.11204 -12.482
rtoes -0.586144
lfemur -15.6654 1.2046 -26.3443
ltibia 51.9647
lfoot -21.0355 7.84385
ltoes 22.8333
1210
root -2.57682 20.8305 1.87102 -4.34834 10.9844 3.76609
lowerback 9.52181 1.87074 -3.42287
upperback 3.34539 2.15324 -1.17114
thorax -1.93912 1.07302 0.473046
lowerneck -7.26488 -1.15098 -7.73253
upperneck 27.6461 -1.67307 5.85887
head 10.064 -0.875892 3.24519
rclavicle 2.67117e-016 4.91992e-015
rhumerus -29.5194 -2.34031 -77.072
rradius 37.4916
rwrist 14.0236
rhand -27.9774 5.83413
rfingers 7.12502
rthumb -1.36409 -24.1413
lclavicle 2.67117e-016 4.91992e-015
lhumerus -34.3967 5.81207 79.5202
lradius 29.8386
lwrist 3.45432
lhand -28.3869 18.7086
lfingers 7.12502
lthumb -1.75962 48.6811
rfemur -26.3064 10.9135 13.0848
rtibia 51.3577
rfoot 8.35664 -12.9453
rtoes 0.208753
lfemur -16.1608 1.40931 -25.9734
ltibia 52.8346
lfoot -21.8229 7.50766
ltoes 22.5277
1211
root -2.59137 20.7734 1.93004 -4.27127 10.8862 3.79256
lowerback 9.42089 1.9172 -3.38503
upperback 3.294 2.22129 -1.17056
thorax -1.93794 1.10736 0.447071
lowerneck -7.24669 -1.14101 -7.79429
upperneck 27.5539 -1.64195 5.84043
head 10.0251 -0.8691 3.25017
rclavicle 2.24223e-014 -1.95803e-014
rhumerus -29.5092 -2.31568 -76.9979
rradius 37.2467
rwrist 13.982
rhand -28.0617 6.17741
rfingers 7.12502
rthumb -1.44548 -23.7974
lclavicle 2.24223e-014 -1.95803e-014
lhumerus -34.3521 5.8153 79.4585
lradius 29.8233
lwrist 3.35119
lhand -28.4774 18.7702
lfingers 7.12502
lthumb -1.84695 48.742
rfemur -25.3809 11.5981 13.0779
rtibia 48.9688
rfoot 9.00419 -13.2513
rtoes 0.803361
lfemur -16.4883 1.65968 -25.8662
ltibia 53.6639
lfoot -22.7434 7.09289
ltoes 21.9707
1212
root -2.60584 20.7195 1.99296 -4.18043 10.8463 3.80476
lowerback 9.23193 1.96825 -3.28511
upperback 3.2522 2.30507 -1.18396
thorax -1.87591 1.14907 0.373648
lowerneck -7.17488 -1.14268 -7.79909
upperneck 27.4304 -1.62263 5.75585
head 9.96474 -0.869085 3.2194
rclavicle -3.52222e-014 5.56597e-015
rhumerus -29.4983 -2.49696 -76.9007
rradius 36.9109
rwrist 14.1782
rhand -28.2307 6.24373
rfingers 7.12502
rthumb -1.60873 -23.7299
lclavicle -3.52222e-014 5.56597e-015
lhumerus -34.3003 5.80293 79.3902
lradius 29.811
lwrist 3.27783
lhand -28.4474 18.7011
lfingers 7.12502
lthumb -1.81803 48.6731
rfemur -24.4628 12.2206 13.0846
rtibia 46.6397
rfoot 9.63509 -13.5324
rtoes 0.963219
lfemur -16.731 1.87817 -25.7424
ltibia 54.4478
lfoot -23.8522 6.50727
ltoes 21.3961
1213
root -2.62178 20.665 2.05594 -4.14239 10.7752 3.77369
lowerback 9.14523 2.01488 -3.13112
upperback 3.19669 2.3819 -1.21741
thorax -1.88085 1.18837 0.246515
lowerneck -7.18101 -1.1373 -7.78119
upperneck 27.3719 -1.6038 5.71063
head 9.94294 -0.862577 3.20063
rclavicle -1.05604e-016 -8.94531e-015
rhumerus -29.5199 -2.88232 -76.8481
rradius 36.5891
rwrist 14.4637
rhand -28.3055 6.17187
rfingers 7.12502
rthumb -1.68094 -23.8013
lclavicle -1.05604e-016 -8.94531e-015
lhumerus -34.2384 5.83682 79.2313
lradius 29.7424
lwrist 3.11568
lhand -28.4013 18.7268
lfingers 7.12502
lthumb -1.77349 48.6992
rfemur -23.5652 12.8701 13.1519
rtibia 44.4152
rfoot 10.1682 -13.8477
rtoes 1.7257
lfemur -16.8696 2.14739 -25.5572
ltibia 55.2015
lfoot -25.0212 5.73786
ltoes 21.0712
1214
root -2.63585 20.604 2.1223 -4.07546 10.6802 3.74398
lowerback 9.02285 2.05573 -2.98153
upperback 3.06881 2.4501 -1.2349
thorax -1.94119 1.22412 0.139059
lowerneck -6.91914 -1.13398 -7.85094
upperneck 27.2017 -1.60889 5.73547
head 9.83174 -0.870579 3.21624
rclavicle -2.30683e-014 -5.06901e-015
rhumerus -29.6207 -3.13511 -76.7833
rradius 36.2621
rwrist 14.7675
rhand -28.4372 6.22168
rfingers 7.12502
rthumb -1.80815 -23.7504
lclavicle -2.30683e-014 -5.06901e-015
lhumerus -34.3228 5.84313 79.0868
lradius 29.6438
lwrist 3.0277
lhand -28.5741 18.7763
lfingers 7.12502
lthumb -1.94042 48.7472
rfemur -22.6765 13.3959 13.2487
rtibia 42.313
rfoot 10.7101 -14.0754
rtoes 2.33877
lfemur -17.0671 2.48184 -25.363
ltibia 56.0017
lfoot -25.885 5.29002
ltoes 21.0503
1215
root -2.65092 20.5394 2.19135 -4.02544 10.5594 3.78951
lowerback 8.84984 2.11907 -2.94393
upperback 2.9859 2.54192 -1.24775
thorax -1.93186 1.27037 0.0995445
lowerneck -6.75466 -1.14518 -7.91089
upperneck 27.1278 -1.62357 5.73189
head 9.7753 -0.884665 3.22172
rclavicle 4.46303e-014 -6.55989e-015
rhumerus -29.6745 -3.19024 -76.7242
rradius 35.9004
rwrist 14.8945
rhand -28.21 6.57001
rfingers 7.12502
rthumb -1.58869 -23.4038
lclavicle 4.46303e-014 -6.55989e-015
lhumerus -34.4244 5.89498 78.9557
lradius 29.5593
lwrist 2.96449
lhand -28.6127 18.7182
lfingers 7.12502
lthumb -1.97768 48.6888
rfemur -21.7366 13.8777 13.3171
rtibia 40.3768
rfoot 10.7145 -14.2289
rtoes 1.37625
lfemur -17.2769 2.86278 -25.2459
ltibia 56.8756
lfoot -26.5 5.30162
ltoes 20.9511
1216
root -2.66815 20.4713 2.25899 -4.0379 10.3482 3.65258
lowerback 8.75549 2.15944 -2.66259
upperback 3.00461 2.62346 -1.26205
thorax -1.84977 1.31085 -0.076677
lowerneck -7.13707 -1.14722 -7.74047
upperneck 27.2891 -1.55912 5.45865
head 9.90086 -0.864107 3.10603
rclavicle -8.20608e-015 6.70898e-015
rhumerus -29.6476 -3.16783 -76.7978
rradius 35.733
rwrist 14.8011
rhand -28.0161 6.46259
rfingers 7.12502
rthumb -1.4015 -23.5126
lclavicle -8.20608e-015 6.70898e-015
lhumerus -34.3281 6.10162 78.7141
lradius 29.5185
lwrist 2.96557
lhand -28.5336 19.1553
lfingers 7.12502
lthumb -1.90129 49.1266
rfemur -20.8557 14.4348 13.6067
rtibia 38.6091
rfoot 10.0909 -14.5839
rtoes 0.0228685
lfemur -17.4989 3.33744 -24.923
ltibia 57.824
lfoot -27.1269 5.42604
ltoes 20.2705
1217
root -2.68884 20.4038 2.32448 -3.94144 10.1415 3.4643
lowerback 8.62795 2.19301 -2.34288
upperback 2.93052 2.69711 -1.27761
thorax -1.8426 1.34852 -0.275486
lowerneck -7.25379 -1.11558 -7.55026
upperneck 27.2431 -1.48213 5.24281
head 9.89871 -0.830993 3.00312
rclavicle -1.29707e-014 9.93923e-016
rhumerus -29.7933 -3.24808 -76.8756
rradius 35.6935
rwrist 14.8828
rhand -27.9954 6.1576
rfingers 7.12502
rthumb -1.38151 -23.8177
lclavicle -1.29707e-014 9.93923e-016
lhumerus -34.2627 6.38453 78.3966
lradius 29.354
lwrist 2.91345
lhand -28.3466 19.2892
lfingers 7.12502
lthumb -1.72063 49.262
rfemur -20.1769 14.9611 13.9633
rtibia 37.0184
rfoot 10.0078 -15.0664
rtoes 0.853188
lfemur -17.9323 3.7756 -24.5353
ltibia 58.832
lfoot -27.7469 5.47242
ltoes 19.2691
1218
root -2.70547 20.3409 2.38916 -3.79899 9.98046 3.37811
lowerback 8.46613 2.25591 -2.03243
upperback 2.79926 2.8066 -1.36065
thorax -1.87185 1.40447 -0.542039
lowerneck -7.17789 -1.13243 -7.46562
upperneck 27.199 -1.5332 5.2731
head 9.87071 -0.843082 2.99277
rclavicle -1.90709e-015 1.54555e-014
rhumerus -29.9788 -3.6653 -76.878
rradius 35.5228
rwrist 15.1267
rhand -27.8414 6.36359
rfingers 7.12502
rthumb -1.23272 -23.6126
lclavicle -1.90709e-015 1.54555e-014
lhumerus -34.2948 6.57387 78.0533
lradius 29.1668
lwrist 2.70832
lhand -28.2456 19.3076
lfingers 7.12502
lthumb -1.62307 49.2812
rfemur -19.5007 15.3437 14.2442
rtibia 35.6213
rfoot 10.4281 -15.731
rtoes 1.86862
lfemur -18.4502 4.11916 -24.2904
ltibia 59.8658
lfoot -28.2515 5.81054
ltoes 18.0244
1219
root -2.7207 20.2726 2.45868 -3.70946 9.88605 3.47955
lowerback 8.30852 2.26543 -1.95149
upperback 2.7653 2.8288 -1.41929
thorax -1.81329 1.41574 -0.643857
lowerneck -7.3404 -1.138 -7.58766
upperneck 27.2286 -1.51886 5.31151
head 9.91336 -0.843409 3.03012
rclavicle -5.10131e-014 1.93815e-015
rhumerus -29.893 -3.84539 -76.8561
rradius 35.214
rwrist 15.2531
rhand -27.8372 6.84536
rfingers 7.12502
rthumb -1.22872 -23.1308
lclavicle -5.10131e-014 1.93815e-015
lhumerus -34.3471 6.84425 77.8005
lradius 29.1142
lwrist 2.69461
lhand -28.2994 21.2727
lfingers 7.12502
lthumb -1.67512 51.2459
rfemur -18.6919 15.578 14.3886
rtibia 34.419
rfoot 10.1693 -16.8714
rtoes 1.90388
lfemur -18.8381 4.43604 -24.2609
ltibia 60.9183
lfoot -28.7033 6.56255
ltoes 16.5807
1220
root -2.73915 20.1911 2.53145 -3.6653 9.74397 3.51486
lowerback 8.14211 2.29095 -1.83312
upperback 2.75957 2.87685 -1.43571
thorax -1.72097 1.43972 -0.7243
lowerneck -7.46344 -1.14412 -7.6961
upperneck 27.1779 -1.49128 5.28279
head 9.91822 -0.843157 3.0406
rclavicle 6.55182e-014 -1.86361e-014
rhumerus -29.8406 -3.82592 -76.8644
rradius 34.9972
rwrist 15.2712
rhand -27.9011 6.84223
rfingers 7.12502
rthumb -1.29039 -23.1336
lclavicle 6.55182e-014 -1.86361e-014
lhumerus -34.4493 7.00352 77.6336
lradius 29.1384
lwrist 2.87018
lhand -28.4979 22.9285
lfingers 7.12502
lthumb -1.86678 52.9001
rfemur -17.9343 15.7475 14.6438
rtibia 33.4288
rfoot 9.49541 -18.109
rtoes 1.90522
lfemur -19.1265 4.79698 -24.143
ltibia 62.0112
lfoot -29.1724 7.23525
ltoes 15.4758
